<?xml version="1.0" encoding="UTF-8" standalone="no"?>
<svg xmlns="http://www.w3.org/2000/svg" xmlns:xlink="http://www.w3.org/1999/xlink" width="910" height="487" viewBox="0" version="1.1">
	<g stroke="none" stroke-width="1" fill="none" fill-rule="evenodd">
		<g transform="translate(-12, -259)" fill="#0084C0">
			<g transform="translate(56, 300)">
				<path d="M171.5 0L65.5 79.69 14 117.32 138.94 210.96 139.15 275.16 171.5 299.13 203.31 275.16 200 180.16 116.42 117.72 171.5 76.32 282 159.39 282 255.84 171.5 338.13 61 255.84 61 192.66 0 147.25 0 286.47 171.5 414.19 343 286.47 343 128.93 171.5 0ZM171.5 0"/>
				<path d="M404.28 287L404.28 129.12 442.64 129.12 442.64 287 404.28 287ZM569 162L512 162 512 287 475.19 287 475.19 129.12C475.19 129.12 585 129 585 129 585 129 609 147 609 147L608.8 287 569 287 569 162ZM642.36 287L642.36 129.12 680.72 129.12 680.72 287 642.36 287ZM780.85 287L742.71 287 743 162 698 162 698.11 129.12C698.11 129.12 801.39 129.23 801.19 129.12 801 129 825 147 825 147L825 162 781 162 780.85 287ZM780.85 287" opacity="0.58"/>
			</g>
		</g>
	</g>
</svg>
