<svg xmlns="http://www.w3.org/2000/svg" width="910" height="487">
	<g fill="none">
		<g transform="translate(-12 -259)" fill="#0084C0">
			<g>
				<path d="M227.5 300l-106 79.69-51.5 37.63 124.94 93.64.21 64.2 32.35 23.97 31.81-23.97-3.31-95-83.58-62.44 55.08-41.4 110.5 83.07v96.45l-110.5 82.29-110.5-82.29v-63.18l-61-45.41v139.22l171.5 127.72 171.5-127.72v-157.54l-171.5-128.93zm0 0"/>
				<path d="M460.28 587v-157.88h38.36v157.88h-38.36zm164.72-125h-57v125h-36.81v-157.88l109.81-.12 24 18-.2 140h-39.8v-125zm73.36 125v-157.88h38.36v157.88h-38.36zm138.49 0h-38.14l.29-125h-45l.11-32.88s103.28.11 103.08 0c-.19-.12 23.81 17.88 23.81 17.88v15h-44l-.15 125zm0 0" opacity=".58"/>
			</g>
		</g>
	</g>
</svg>
